{
  "accessors": [
    {
      "bufferView": 2,
      "componentType": 5126,
      "count": 24,
      "max": [
        0.32999998331069946,
        0.33829915523529053,
        0.004587655421346426
      ],
      "min": [
        -0.32999998331069946,
        -0.33829915523529053,
        0
      ],
      "type": "VEC3"
    },
    {
      "bufferView": 2,
      "byteOffset": 288,
      "componentType": 5126,
      "count": 24,
      "max": [
        1,
        1,
        1
      ],
      "min": [
        -1,
        -1,
        -1
      ],
      "type": "VEC3"
    },
    {
      "bufferView": 3,
      "componentType": 5126,
      "count": 24,
      "max": [
        1,
        9.0310059874809667e-08,
        1,
        1
      ],
      "min": [
        0,
        -1.761892178819835e-07,
        -1,
        1
      ],
      "type": "VEC4"
    },
    {
      "bufferView": 1,
      "componentType": 5126,
      "count": 24,
      "max": [
        1,
        0.99999994039535522
      ],
      "min": [
        0,
        0
      ],
      "type": "VEC2"
    },
    {
      "bufferView": 0,
      "componentType": 5125,
      "count": 36,
      "max": [
        23
      ],
      "min": [
        0
      ],
      "type": "SCALAR"
    },
    {
      "bufferView": 2,
      "byteOffset": 576,
      "componentType": 5126,
      "count": 662,
      "max": [
        0.89196139574050903,
        0.37422400712966919,
        0.19908440113067627
      ],
      "min": [
        -0.89146101474761963,
        -0.42080983519554138,
        0
      ],
      "type": "VEC3"
    },
    {
      "bufferView": 2,
      "byteOffset": 8520,
      "componentType": 5126,
      "count": 662,
      "max": [
        1,
        1,
        1
      ],
      "min": [
        -0.99997520446777344,
        -1,
        -1
      ],
      "type": "VEC3"
    },
    {
      "bufferView": 3,
      "byteOffset": 384,
      "componentType": 5126,
      "count": 662,
      "max": [
        1,
        1,
        0.97630643844604492,
        1
      ],
      "min": [
        -0.79391676187515259,
        -0.89873093366622925,
        -0.97630864381790161,
        1
      ],
      "type": "VEC4"
    },
    {
      "bufferView": 1,
      "byteOffset": 192,
      "componentType": 5126,
      "count": 662,
      "max": [
        0.80987584590911865,
        0.99980175495147705
      ],
      "min": [
        0.00019835727289319038,
        0.00019835727289319038
      ],
      "type": "VEC2"
    },
    {
      "bufferView": 0,
      "byteOffset": 144,
      "componentType": 5125,
      "count": 3264,
      "max": [
        661
      ],
      "min": [
        0
      ],
      "type": "SCALAR"
    },
    {
      "bufferView": 2,
      "byteOffset": 16464,
      "componentType": 5126,
      "count": 1126,
      "max": [
        0.92719078063964844,
        0.41683074831962585,
        0.80380463600158691
      ],
      "min": [
        -0.91931861639022827,
        -0.41683086752891541,
        0.020935513079166412
      ],
      "type": "VEC3"
    },
    {
      "bufferView": 2,
      "byteOffset": 29976,
      "componentType": 5126,
      "count": 1126,
      "max": [
        0.97040641307830811,
        1,
        1
      ],
      "min": [
        -1,
        -1,
        -1
      ],
      "type": "VEC3"
    },
    {
      "bufferView": 3,
      "byteOffset": 10976,
      "componentType": 5126,
      "count": 1126,
      "max": [
        1,
        1,
        1,
        1
      ],
      "min": [
        -1,
        -0.99684864282608032,
        -1,
        -1
      ],
      "type": "VEC4"
    },
    {
      "bufferView": 1,
      "byteOffset": 5488,
      "componentType": 5126,
      "count": 1126,
      "max": [
        1.0072380304336548,
        0.99442827701568604
      ],
      "min": [
        0.00020275513816159219,
        0.00020275513816159219
      ],
      "type": "VEC2"
    },
    {
      "bufferView": 0,
      "byteOffset": 13200,
      "componentType": 5125,
      "count": 3792,
      "max": [
        1125
      ],
      "min": [
        0
      ],
      "type": "SCALAR"
    },
    {
      "bufferView": 2,
      "byteOffset": 43488,
      "componentType": 5126,
      "count": 350,
      "max": [
        0.92613911628723145,
        0.42431476712226868,
        0.021059714257717133
      ],
      "min": [
        -0.92613893747329712,
        -0.42431488633155823,
        1.4901161193847656e-08
      ],
      "type": "VEC3"
    },
    {
      "bufferView": 2,
      "byteOffset": 47688,
      "componentType": 5126,
      "count": 350,
      "max": [
        0.93321824073791504,
        0.98124057054519653,
        0.80676949024200439
      ],
      "min": [
        -0.93321824073791504,
        -0.98124057054519653,
        -0.643718421459198
      ],
      "type": "VEC3"
    },
    {
      "bufferView": 3,
      "byteOffset": 28992,
      "componentType": 5126,
      "count": 350,
      "max": [
        0.99557954072952271,
        0.97198474407196045,
        0.97413450479507446,
        1
      ],
      "min": [
        -0.99557960033416748,
        -0.97198486328125,
        -0.97413462400436401,
        -1
      ],
      "type": "VEC4"
    },
    {
      "bufferView": 0,
      "byteOffset": 28368,
      "componentType": 5125,
      "count": 1056,
      "max": [
        349
      ],
      "min": [
        0
      ],
      "type": "SCALAR"
    }
  ],
  "asset": {
    "extras": {
      "author": "holsoft (https://sketchfab.com/holsoft)",
      "license": "CC-BY-4.0 (http://creativecommons.org/licenses/by/4.0/)",
      "source": "https://sketchfab.com/models/63c27a4a99ef42a99dce479944fbf670",
      "title": "Simple metal bed"
    },
    "generator": "Sketchfab-3.19.4",
    "version": "2.0"
  },
  "bufferViews": [
    {
      "buffer": 0,
      "byteLength": 32592,
      "byteOffset": 0,
      "name": "floatBufferViews",
      "target": 34963
    },
    {
      "buffer": 0,
      "byteLength": 14496,
      "byteOffset": 32592,
      "byteStride": 8,
      "name": "floatBufferViews",
      "target": 34962
    },
    {
      "buffer": 0,
      "byteLength": 51888,
      "byteOffset": 47088,
      "byteStride": 12,
      "name": "floatBufferViews",
      "target": 34962
    },
    {
      "buffer": 0,
      "byteLength": 34592,
      "byteOffset": 98976,
      "byteStride": 16,
      "name": "floatBufferViews",
      "target": 34962
    }
  ],
  "buffers": [
    {
      "byteLength": 133568,
      "uri": "scene.bin"
    }
  ],
  "images": [
    {
      "uri": "textures/Cage_normal.png"
    },
    {
      "uri": "textures/Cage_metallicRoughness.png"
    },
    {
      "uri": "textures/Cage_baseColor.png"
    },
    {
      "uri": "textures/Plank__0_normal.png"
    },
    {
      "uri": "textures/Plank__0_metallicRoughness.png"
    },
    {
      "uri": "textures/Plank__0_baseColor.png"
    },
    {
      "uri": "textures/Matress_normal.png"
    },
    {
      "uri": "textures/Matress_metallicRoughness.png"
    },
    {
      "uri": "textures/Matress_baseColor.png"
    }
  ],
  "materials": [
    {
      "doubleSided": true,
      "emissiveFactor": [
        0,
        0,
        0
      ],
      "name": "Plank__0",
      "normalTexture": {
        "index": 3,
        "scale": 1,
        "texCoord": 0
      },
      "pbrMetallicRoughness": {
        "baseColorFactor": [
          1,
          1,
          1,
          1
        ],
        "baseColorTexture": {
          "index": 5,
          "texCoord": 0
        },
        "metallicFactor": 1,
        "metallicRoughnessTexture": {
          "index": 4,
          "texCoord": 0
        },
        "roughnessFactor": 1
      }
    },
    {
      "doubleSided": true,
      "emissiveFactor": [
        0,
        0,
        0
      ],
      "name": "Matress",
      "normalTexture": {
        "index": 6,
        "scale": 1,
        "texCoord": 0
      },
      "pbrMetallicRoughness": {
        "baseColorFactor": [
          1,
          1,
          1,
          1
        ],
        "baseColorTexture": {
          "index": 8,
          "texCoord": 0
        },
        "metallicFactor": 1,
        "metallicRoughnessTexture": {
          "index": 7,
          "texCoord": 0
        },
        "roughnessFactor": 1
      }
    },
    {
      "doubleSided": true,
      "emissiveFactor": [
        0,
        0,
        0
      ],
      "name": "Cage",
      "normalTexture": {
        "index": 0,
        "scale": 1,
        "texCoord": 0
      },
      "pbrMetallicRoughness": {
        "baseColorFactor": [
          1,
          1,
          1,
          1
        ],
        "baseColorTexture": {
          "index": 2,
          "texCoord": 0
        },
        "metallicFactor": 1,
        "metallicRoughnessTexture": {
          "index": 1,
          "texCoord": 0
        },
        "roughnessFactor": 1
      }
    },
    {
      "doubleSided": true,
      "emissiveFactor": [
        0,
        0,
        0
      ],
      "name": "RubberLegs",
      "pbrMetallicRoughness": {
        "baseColorFactor": [
          0.037409600000000001,
          0.037409600000000001,
          0.037409600000000001,
          1
        ],
        "metallicFactor": 0,
        "roughnessFactor": 0.59999999999999998
      }
    }
  ],
  "meshes": [
    {
      "name": "Plank__0",
      "primitives": [
        {
          "attributes": {
            "NORMAL": 1,
            "POSITION": 0,
            "TANGENT": 2,
            "TEXCOORD_0": 3
          },
          "indices": 4,
          "material": 0,
          "mode": 4
        }
      ]
    },
    {
      "name": "Matress_Matress_0",
      "primitives": [
        {
          "attributes": {
            "NORMAL": 6,
            "POSITION": 5,
            "TANGENT": 7,
            "TEXCOORD_0": 8
          },
          "indices": 9,
          "material": 1,
          "mode": 4
        }
      ]
    },
    {
      "name": "Cage_Cage_0",
      "primitives": [
        {
          "attributes": {
            "NORMAL": 11,
            "POSITION": 10,
            "TANGENT": 12,
            "TEXCOORD_0": 13
          },
          "indices": 14,
          "material": 2,
          "mode": 4
        }
      ]
    },
    {
      "name": "Cage_RubberLegs_0",
      "primitives": [
        {
          "attributes": {
            "NORMAL": 16,
            "POSITION": 15,
            "TANGENT": 17
          },
          "indices": 18,
          "material": 3,
          "mode": 4
        }
      ]
    }
  ],
  "nodes": [
    {
      "children": [
        1
      ],
      "name": "RootNode (gltf orientation matrix)",
      "rotation": [
        -0.70710678118654746,
        -0,
        -0,
        0.70710678118654757
      ]
    },
    {
      "children": [
        2
      ],
      "name": "RootNode (model correction matrix)"
    },
    {
      "children": [
        3
      ],
      "matrix": [
        1,
        0,
        0,
        0,
        0,
        0,
        1,
        0,
        0,
        -1,
        0,
        0,
        0,
        0,
        0,
        1
      ],
      "name": "274dd0b7bded4078bd970d47150e9067.fbx"
    },
    {
      "children": [
        4,
        6,
        8
      ],
      "name": "RootNode"
    },
    {
      "children": [
        5
      ],
      "matrix": [
        2.6355948448181152,
        0,
        0,
        0,
        0,
        -1.7756420200335095e-07,
        -1.0898813009261941,
        0,
        0,
        1.0898813009261941,
        -1.7756420200335095e-07,
        0,
        0.90330451726913452,
        0.43715563416481018,
        -0.40065115690231323,
        1
      ],
      "name": "Plank"
    },
    {
      "mesh": 0,
      "name": "Plank__0"
    },
    {
      "children": [
        7
      ],
      "matrix": [
        1,
        0,
        0,
        0,
        0,
        -1.6292067939183141e-07,
        -0.99999999999998679,
        0,
        0,
        0.99999999999998679,
        -1.6292067939183141e-07,
        0,
        0.90330451726913452,
        0.44215565919876099,
        -0.42322376370429993,
        1
      ],
      "name": "Matress"
    },
    {
      "mesh": 1,
      "name": "Matress_Matress_0"
    },
    {
      "children": [
        9,
        10
      ],
      "matrix": [
        1,
        0,
        0,
        0,
        0,
        -1.6292067939183141e-07,
        -0.99999999999998679,
        0,
        0,
        0.99999999999998679,
        -1.6292067939183141e-07,
        0,
        0.90000009536743164,
        0.066565997898578644,
        -0.40000006556510925,
        1
      ],
      "name": "Cage"
    },
    {
      "mesh": 2,
      "name": "Cage_Cage_0"
    },
    {
      "mesh": 3,
      "name": "Cage_RubberLegs_0"
    }
  ],
  "samplers": [
    {
      "magFilter": 9729,
      "minFilter": 9987,
      "wrapS": 10497,
      "wrapT": 10497
    }
  ],
  "scene": 0,
  "scenes": [
    {
      "name": "OSG_Scene",
      "nodes": [
        0
      ]
    }
  ],
  "textures": [
    {
      "sampler": 0,
      "source": 0
    },
    {
      "sampler": 0,
      "source": 1
    },
    {
      "sampler": 0,
      "source": 2
    },
    {
      "sampler": 0,
      "source": 3
    },
    {
      "sampler": 0,
      "source": 4
    },
    {
      "sampler": 0,
      "source": 5
    },
    {
      "sampler": 0,
      "source": 6
    },
    {
      "sampler": 0,
      "source": 7
    },
    {
      "sampler": 0,
      "source": 8
    }
  ]
}

