{
  "accessors": [
    {
      "bufferView": 2,
      "componentType": 5126,
      "count": 508,
      "max": [
        121.11210632324219,
        219.42282104492188,
        10.686702728271484
      ],
      "min": [
        -0.86717987060546875,
        2.5,
        -10.686702728271484
      ],
      "type": "VEC3"
    },
    {
      "bufferView": 2,
      "byteOffset": 6096,
      "componentType": 5126,
      "count": 508,
      "max": [
        1,
        1,
        1
      ],
      "min": [
        -1,
        -1,
        -1
      ],
      "type": "VEC3"
    },
    {
      "bufferView": 3,
      "componentType": 5126,
      "count": 508,
      "max": [
        1,
        0.99999892711639404,
        1,
        1
      ],
      "min": [
        -1,
        -0.99999892711639404,
        -1,
        1
      ],
      "type": "VEC4"
    },
    {
      "bufferView": 1,
      "componentType": 5126,
      "count": 508,
      "max": [
        0.99157071113586426,
        0.99369388818740845
      ],
      "min": [
        0.010550253093242645,
        0.0023118257522583008
      ],
      "type": "VEC2"
    },
    {
      "bufferView": 0,
      "componentType": 5125,
      "count": 1740,
      "max": [
        507
      ],
      "min": [
        0
      ],
      "type": "SCALAR"
    }
  ],
  "asset": {
    "extras": {
      "author": "Nicholas Record (https://sketchfab.com/nrecord)",
      "license": "CC-BY-4.0 (http://creativecommons.org/licenses/by/4.0/)",
      "source": "https://sketchfab.com/models/4a464cfd28064497bd3bcd010ef71481",
      "title": "Wooden Door"
    },
    "generator": "Sketchfab-3.19.5",
    "version": "2.0"
  },
  "bufferViews": [
    {
      "buffer": 0,
      "byteLength": 6960,
      "byteOffset": 0,
      "name": "floatBufferViews",
      "target": 34963
    },
    {
      "buffer": 0,
      "byteLength": 4064,
      "byteOffset": 6960,
      "byteStride": 8,
      "name": "floatBufferViews",
      "target": 34962
    },
    {
      "buffer": 0,
      "byteLength": 12192,
      "byteOffset": 11024,
      "byteStride": 12,
      "name": "floatBufferViews",
      "target": 34962
    },
    {
      "buffer": 0,
      "byteLength": 8128,
      "byteOffset": 23216,
      "byteStride": 16,
      "name": "floatBufferViews",
      "target": 34962
    }
  ],
  "buffers": [
    {
      "byteLength": 31344,
      "uri": "scene.bin"
    }
  ],
  "images": [
    {
      "uri": "textures/blinn2_metallicRoughness.png"
    },
    {
      "uri": "textures/blinn2_normal.png"
    },
    {
      "uri": "textures/blinn2_baseColor.png"
    }
  ],
  "materials": [
    {
      "doubleSided": true,
      "emissiveFactor": [
        0,
        0,
        0
      ],
      "name": "blinn2",
      "normalTexture": {
        "index": 1,
        "scale": 1,
        "texCoord": 0
      },
      "occlusionTexture": {
        "index": 0,
        "strength": 1,
        "texCoord": 0
      },
      "pbrMetallicRoughness": {
        "baseColorFactor": [
          1,
          1,
          1,
          1
        ],
        "baseColorTexture": {
          "index": 2,
          "texCoord": 0
        },
        "metallicFactor": 1,
        "metallicRoughnessTexture": {
          "index": 0,
          "texCoord": 0
        },
        "roughnessFactor": 0.45000000000000001
      }
    }
  ],
  "meshes": [
    {
      "name": "door01_MDL_nar_blinn2_0",
      "primitives": [
        {
          "attributes": {
            "NORMAL": 1,
            "POSITION": 0,
            "TANGENT": 2,
            "TEXCOORD_0": 3
          },
          "indices": 4,
          "material": 0,
          "mode": 4
        }
      ]
    }
  ],
  "nodes": [
    {
      "children": [
        1
      ],
      "name": "RootNode (gltf orientation matrix)",
      "rotation": [
        -0.70710678118654746,
        -0,
        -0,
        0.70710678118654757
      ]
    },
    {
      "children": [
        2
      ],
      "name": "RootNode (model correction matrix)"
    },
    {
      "children": [
        3
      ],
      "matrix": [
        1,
        0,
        0,
        0,
        0,
        0,
        1,
        0,
        0,
        -1,
        0,
        0,
        0,
        0,
        0,
        1
      ],
      "name": "66ebc542d7eb4862bd7a8814407b04ae.fbx"
    },
    {
      "children": [
        4
      ],
      "name": "RootNode"
    },
    {
      "children": [
        5
      ],
      "name": "CompleteLPModels"
    },
    {
      "children": [
        6
      ],
      "name": "door01_MDL_nar"
    },
    {
      "mesh": 0,
      "name": "door01_MDL_nar_blinn2_0"
    }
  ],
  "samplers": [
    {
      "magFilter": 9729,
      "minFilter": 9987,
      "wrapS": 10497,
      "wrapT": 10497
    }
  ],
  "scene": 0,
  "scenes": [
    {
      "name": "OSG_Scene",
      "nodes": [
        0
      ]
    }
  ],
  "textures": [
    {
      "sampler": 0,
      "source": 0
    },
    {
      "sampler": 0,
      "source": 1
    },
    {
      "sampler": 0,
      "source": 2
    }
  ]
}

