{
  "accessors": [
    {
      "bufferView": 2,
      "componentType": 5126,
      "count": 312,
      "max": [
        8.7743997573852539,
        28.527599334716797,
        26.601299285888672
      ],
      "min": [
        -23.032199859619141,
        -34.385601043701172,
        0.2101999968290329
      ],
      "type": "VEC3"
    },
    {
      "bufferView": 2,
      "byteOffset": 3744,
      "componentType": 5126,
      "count": 312,
      "max": [
        0.71730035543441772,
        0.71730035543441772,
        0.90540492534637451
      ],
      "min": [
        -0.71727639436721802,
        -0.71730035543441772,
        -0.71730035543441772
      ],
      "type": "VEC3"
    },
    {
      "bufferView": 3,
      "componentType": 5126,
      "count": 312,
      "max": [
        0.95484942197799683,
        0.9548494815826416,
        0.95484787225723267,
        1
      ],
      "min": [
        -0.9538758397102356,
        -0.95484942197799683,
        -0.95484906435012817,
        1
      ],
      "type": "VEC4"
    },
    {
      "bufferView": 1,
      "componentType": 5126,
      "count": 312,
      "max": [
        0.99949997663497925,
        0.99769997596740723
      ],
      "min": [
        0.00050000002374872565,
        0.00050000002374872565
      ],
      "type": "VEC2"
    },
    {
      "bufferView": 0,
      "componentType": 5125,
      "count": 516,
      "max": [
        311
      ],
      "min": [
        0
      ],
      "type": "SCALAR"
    },
    {
      "bufferView": 2,
      "byteOffset": 7488,
      "componentType": 5126,
      "count": 120,
      "max": [
        8.9133996963500977,
        31.300399780273438,
        27.952600479125977
      ],
      "min": [
        -23.470199584960938,
        -36.359901428222656,
        26.596599578857422
      ],
      "type": "VEC3"
    },
    {
      "bufferView": 2,
      "byteOffset": 8928,
      "componentType": 5126,
      "count": 120,
      "max": [
        0.65069514513015747,
        0.71727639436721802,
        0.90540492534637451
      ],
      "min": [
        -0.65069514513015747,
        -0.71727639436721802,
        -0.57735025882720947
      ],
      "type": "VEC3"
    },
    {
      "bufferView": 3,
      "byteOffset": 4992,
      "componentType": 5126,
      "count": 120,
      "max": [
        0.95192903280258179,
        0.58230656385421753,
        0.9548494815826416,
        1
      ],
      "min": [
        -0.95204871892929077,
        -0.58230656385421753,
        -0.9548494815826416,
        1
      ],
      "type": "VEC4"
    },
    {
      "bufferView": 1,
      "byteOffset": 2496,
      "componentType": 5126,
      "count": 120,
      "max": [
        0.99089998006820679,
        0.99940001964569092
      ],
      "min": [
        0.00030000001424923539,
        0.0010000000474974513
      ],
      "type": "VEC2"
    },
    {
      "bufferView": 0,
      "byteOffset": 2064,
      "componentType": 5125,
      "count": 300,
      "max": [
        119
      ],
      "min": [
        0
      ],
      "type": "SCALAR"
    }
  ],
  "asset": {
    "extras": {
      "author": "shedmon (https://sketchfab.com/shedmon)",
      "license": "CC-BY-4.0 (http://creativecommons.org/licenses/by/4.0/)",
      "source": "https://sketchfab.com/3d-models/wooden-table-acd1cef307b94803846d624b251a4e63",
      "title": "Wooden Table"
    },
    "generator": "Sketchfab-4.42.0",
    "version": "2.0"
  },
  "bufferViews": [
    {
      "buffer": 0,
      "byteLength": 3264,
      "byteOffset": 0,
      "name": "floatBufferViews",
      "target": 34963
    },
    {
      "buffer": 0,
      "byteLength": 3456,
      "byteOffset": 3264,
      "byteStride": 8,
      "name": "floatBufferViews",
      "target": 34962
    },
    {
      "buffer": 0,
      "byteLength": 10368,
      "byteOffset": 6720,
      "byteStride": 12,
      "name": "floatBufferViews",
      "target": 34962
    },
    {
      "buffer": 0,
      "byteLength": 6912,
      "byteOffset": 17088,
      "byteStride": 16,
      "name": "floatBufferViews",
      "target": 34962
    }
  ],
  "buffers": [
    {
      "byteLength": 24000,
      "uri": "scene.bin"
    }
  ],
  "extensionsRequired": [
    "KHR_materials_pbrSpecularGlossiness"
  ],
  "extensionsUsed": [
    "KHR_materials_pbrSpecularGlossiness"
  ],
  "images": [
    {
      "uri": "textures/material_specularGlossiness.png"
    },
    {
      "uri": "textures/material_normal.png"
    },
    {
      "uri": "textures/material_occlusion.png"
    },
    {
      "uri": "textures/material_diffuse.png"
    },
    {
      "uri": "textures/material_2_specularGlossiness.png"
    },
    {
      "uri": "textures/material_2_normal.png"
    },
    {
      "uri": "textures/material_2_occlusion.png"
    },
    {
      "uri": "textures/material_2_diffuse.png"
    }
  ],
  "materials": [
    {
      "doubleSided": true,
      "extensions": {
        "KHR_materials_pbrSpecularGlossiness": {
          "diffuseFactor": [
            1,
            1,
            1,
            1
          ],
          "diffuseTexture": {
            "index": 3,
            "texCoord": 0
          },
          "glossinessFactor": 1,
          "specularFactor": [
            1,
            1,
            1
          ],
          "specularGlossinessTexture": {
            "index": 0,
            "texCoord": 0
          }
        }
      },
      "name": "material",
      "normalTexture": {
        "index": 1,
        "scale": 1,
        "texCoord": 0
      },
      "occlusionTexture": {
        "index": 2,
        "strength": 1,
        "texCoord": 0
      }
    },
    {
      "doubleSided": true,
      "extensions": {
        "KHR_materials_pbrSpecularGlossiness": {
          "diffuseFactor": [
            1,
            1,
            1,
            1
          ],
          "diffuseTexture": {
            "index": 7,
            "texCoord": 0
          },
          "glossinessFactor": 1,
          "specularFactor": [
            1,
            1,
            1
          ],
          "specularGlossinessTexture": {
            "index": 4,
            "texCoord": 0
          }
        }
      },
      "name": "material_2",
      "normalTexture": {
        "index": 5,
        "scale": 1,
        "texCoord": 0
      },
      "occlusionTexture": {
        "index": 6,
        "strength": 1,
        "texCoord": 0
      }
    }
  ],
  "meshes": [
    {
      "primitives": [
        {
          "attributes": {
            "NORMAL": 1,
            "POSITION": 0,
            "TANGENT": 2,
            "TEXCOORD_0": 3
          },
          "indices": 4,
          "material": 0,
          "mode": 4
        }
      ]
    },
    {
      "primitives": [
        {
          "attributes": {
            "NORMAL": 6,
            "POSITION": 5,
            "TANGENT": 7,
            "TEXCOORD_0": 8
          },
          "indices": 9,
          "material": 1,
          "mode": 4
        }
      ]
    }
  ],
  "nodes": [
    {
      "children": [
        1
      ],
      "name": "RootNode (gltf orientation matrix)",
      "rotation": [
        -0.70710678118654746,
        -0,
        -0,
        0.70710678118654757
      ]
    },
    {
      "children": [
        2
      ],
      "name": "RootNode (model correction matrix)"
    },
    {
      "children": [
        3,
        4
      ],
      "name": "Wooden_Table.obj.cleaner.materialmerger.gles"
    },
    {
      "mesh": 0,
      "name": ""
    },
    {
      "mesh": 1,
      "name": ""
    }
  ],
  "samplers": [
    {
      "magFilter": 9729,
      "minFilter": 9987,
      "wrapS": 10497,
      "wrapT": 10497
    }
  ],
  "scene": 0,
  "scenes": [
    {
      "name": "OSG_Scene",
      "nodes": [
        0
      ]
    }
  ],
  "textures": [
    {
      "sampler": 0,
      "source": 0
    },
    {
      "sampler": 0,
      "source": 1
    },
    {
      "sampler": 0,
      "source": 2
    },
    {
      "sampler": 0,
      "source": 3
    },
    {
      "sampler": 0,
      "source": 4
    },
    {
      "sampler": 0,
      "source": 5
    },
    {
      "sampler": 0,
      "source": 6
    },
    {
      "sampler": 0,
      "source": 7
    }
  ]
}

